<mxfile host="app.diagrams.net" agent="Mozilla/5.0 (Windows NT 10.0; Win64; x64; rv:141.0) Gecko/20100101 Firefox/141.0" version="28.0.9">
  <diagram name="Page-1" id="6nfz8c_6jjo6OjKBl44j">
    <mxGraphModel dx="1166" dy="682" grid="1" gridSize="10" guides="1" tooltips="1" connect="1" arrows="1" fold="1" page="1" pageScale="1" pageWidth="850" pageHeight="1100" math="0" shadow="0">
      <root>
        <mxCell id="0" />
        <mxCell id="1" parent="0" />
        <mxCell id="g1UYE4MBqfW0X2hkzpsW-1" value="&lt;b&gt;&lt;font style=&quot;font-size: 20px;&quot;&gt;Integration Model&lt;/font&gt;&lt;/b&gt;" style="text;html=1;align=center;verticalAlign=middle;whiteSpace=wrap;rounded=0;" vertex="1" parent="1">
          <mxGeometry x="40" y="15" width="170" height="30" as="geometry" />
        </mxCell>
        <mxCell id="g1UYE4MBqfW0X2hkzpsW-2" value="(how tables are related)" style="text;html=1;align=center;verticalAlign=middle;whiteSpace=wrap;rounded=0;" vertex="1" parent="1">
          <mxGeometry x="210" y="20" width="140" height="20" as="geometry" />
        </mxCell>
        <mxCell id="g1UYE4MBqfW0X2hkzpsW-3" value="crm_cust_info" style="swimlane;fontStyle=0;childLayout=stackLayout;horizontal=1;startSize=30;horizontalStack=0;resizeParent=1;resizeParentMax=0;resizeLast=0;collapsible=1;marginBottom=0;whiteSpace=wrap;html=1;rounded=1;fillColor=#dae8fc;strokeColor=#6c8ebf;fontSize=18;" vertex="1" parent="1">
          <mxGeometry x="295" y="160" width="160" height="80" as="geometry" />
        </mxCell>
        <mxCell id="g1UYE4MBqfW0X2hkzpsW-4" value="cst_id" style="text;strokeColor=none;fillColor=none;align=left;verticalAlign=middle;spacingLeft=4;spacingRight=4;overflow=hidden;points=[[0,0.5],[1,0.5]];portConstraint=eastwest;rotatable=0;whiteSpace=wrap;html=1;fontSize=18;" vertex="1" parent="g1UYE4MBqfW0X2hkzpsW-3">
          <mxGeometry y="30" width="160" height="25" as="geometry" />
        </mxCell>
        <mxCell id="g1UYE4MBqfW0X2hkzpsW-31" value="cst_key" style="text;strokeColor=none;fillColor=none;align=left;verticalAlign=middle;spacingLeft=4;spacingRight=4;overflow=hidden;points=[[0,0.5],[1,0.5]];portConstraint=eastwest;rotatable=0;whiteSpace=wrap;html=1;fontSize=18;" vertex="1" parent="g1UYE4MBqfW0X2hkzpsW-3">
          <mxGeometry y="55" width="160" height="25" as="geometry" />
        </mxCell>
        <mxCell id="g1UYE4MBqfW0X2hkzpsW-7" value="&lt;font style=&quot;font-size: 14px;&quot;&gt;Customer Information&lt;/font&gt;" style="text;html=1;align=center;verticalAlign=middle;whiteSpace=wrap;rounded=0;" vertex="1" parent="1">
          <mxGeometry x="290" y="130" width="170" height="30" as="geometry" />
        </mxCell>
        <mxCell id="g1UYE4MBqfW0X2hkzpsW-8" value="crm_prd_info" style="swimlane;fontStyle=0;childLayout=stackLayout;horizontal=1;startSize=30;horizontalStack=0;resizeParent=1;resizeParentMax=0;resizeLast=0;collapsible=1;marginBottom=0;whiteSpace=wrap;html=1;rounded=1;fillColor=#dae8fc;strokeColor=#6c8ebf;fontSize=18;" vertex="1" parent="1">
          <mxGeometry x="300" y="370" width="160" height="80" as="geometry" />
        </mxCell>
        <mxCell id="g1UYE4MBqfW0X2hkzpsW-9" value="prd_key" style="text;strokeColor=none;fillColor=none;align=left;verticalAlign=middle;spacingLeft=4;spacingRight=4;overflow=hidden;points=[[0,0.5],[1,0.5]];portConstraint=eastwest;rotatable=0;whiteSpace=wrap;html=1;fontSize=18;" vertex="1" parent="g1UYE4MBqfW0X2hkzpsW-8">
          <mxGeometry y="30" width="160" height="25" as="geometry" />
        </mxCell>
        <mxCell id="g1UYE4MBqfW0X2hkzpsW-21" value="cst_key" style="text;strokeColor=none;fillColor=none;align=left;verticalAlign=middle;spacingLeft=4;spacingRight=4;overflow=hidden;points=[[0,0.5],[1,0.5]];portConstraint=eastwest;rotatable=0;whiteSpace=wrap;html=1;fontSize=18;" vertex="1" parent="g1UYE4MBqfW0X2hkzpsW-8">
          <mxGeometry y="55" width="160" height="25" as="geometry" />
        </mxCell>
        <mxCell id="g1UYE4MBqfW0X2hkzpsW-10" value="&lt;font style=&quot;font-size: 14px;&quot;&gt;Current &amp;amp; History Product Information&lt;/font&gt;" style="text;html=1;align=center;verticalAlign=middle;whiteSpace=wrap;rounded=0;" vertex="1" parent="1">
          <mxGeometry x="270" y="340" width="240" height="30" as="geometry" />
        </mxCell>
        <mxCell id="g1UYE4MBqfW0X2hkzpsW-11" value="crm_sales_details" style="swimlane;fontStyle=0;childLayout=stackLayout;horizontal=1;startSize=30;horizontalStack=0;resizeParent=1;resizeParentMax=0;resizeLast=0;collapsible=1;marginBottom=0;whiteSpace=wrap;html=1;rounded=1;fillColor=#dae8fc;strokeColor=#6c8ebf;fontSize=18;" vertex="1" parent="1">
          <mxGeometry x="40" y="230" width="185" height="80" as="geometry" />
        </mxCell>
        <mxCell id="g1UYE4MBqfW0X2hkzpsW-12" value="&lt;div&gt;cst_id&lt;/div&gt;" style="text;strokeColor=none;fillColor=none;align=left;verticalAlign=middle;spacingLeft=4;spacingRight=4;overflow=hidden;points=[[0,0.5],[1,0.5]];portConstraint=eastwest;rotatable=0;whiteSpace=wrap;html=1;fontSize=18;" vertex="1" parent="g1UYE4MBqfW0X2hkzpsW-11">
          <mxGeometry y="30" width="185" height="25" as="geometry" />
        </mxCell>
        <mxCell id="g1UYE4MBqfW0X2hkzpsW-15" value="prd_key" style="text;strokeColor=none;fillColor=none;align=left;verticalAlign=middle;spacingLeft=4;spacingRight=4;overflow=hidden;points=[[0,0.5],[1,0.5]];portConstraint=eastwest;rotatable=0;whiteSpace=wrap;html=1;fontSize=18;" vertex="1" parent="g1UYE4MBqfW0X2hkzpsW-11">
          <mxGeometry y="55" width="185" height="25" as="geometry" />
        </mxCell>
        <mxCell id="g1UYE4MBqfW0X2hkzpsW-13" value="&lt;font style=&quot;font-size: 14px;&quot;&gt;Transactional Records about Sales &amp;amp; Orders&lt;/font&gt;" style="text;html=1;align=center;verticalAlign=middle;whiteSpace=wrap;rounded=0;" vertex="1" parent="1">
          <mxGeometry x="47.5" y="190" width="170" height="30" as="geometry" />
        </mxCell>
        <mxCell id="g1UYE4MBqfW0X2hkzpsW-16" style="edgeStyle=orthogonalEdgeStyle;rounded=0;orthogonalLoop=1;jettySize=auto;html=1;entryX=0;entryY=0.5;entryDx=0;entryDy=0;" edge="1" parent="1" source="g1UYE4MBqfW0X2hkzpsW-12" target="g1UYE4MBqfW0X2hkzpsW-4">
          <mxGeometry relative="1" as="geometry" />
        </mxCell>
        <mxCell id="g1UYE4MBqfW0X2hkzpsW-17" style="edgeStyle=orthogonalEdgeStyle;rounded=0;orthogonalLoop=1;jettySize=auto;html=1;" edge="1" parent="1" source="g1UYE4MBqfW0X2hkzpsW-15" target="g1UYE4MBqfW0X2hkzpsW-9">
          <mxGeometry relative="1" as="geometry" />
        </mxCell>
        <mxCell id="g1UYE4MBqfW0X2hkzpsW-18" value="erp_cust_az12" style="swimlane;fontStyle=0;childLayout=stackLayout;horizontal=1;startSize=30;horizontalStack=0;resizeParent=1;resizeParentMax=0;resizeLast=0;collapsible=1;marginBottom=0;whiteSpace=wrap;html=1;rounded=1;fillColor=#fff2cc;strokeColor=#d6b656;fontSize=18;" vertex="1" parent="1">
          <mxGeometry x="725" y="150" width="160" height="55" as="geometry" />
        </mxCell>
        <mxCell id="g1UYE4MBqfW0X2hkzpsW-19" value="cid" style="text;strokeColor=none;fillColor=none;align=left;verticalAlign=middle;spacingLeft=4;spacingRight=4;overflow=hidden;points=[[0,0.5],[1,0.5]];portConstraint=eastwest;rotatable=0;whiteSpace=wrap;html=1;fontSize=18;" vertex="1" parent="g1UYE4MBqfW0X2hkzpsW-18">
          <mxGeometry y="30" width="160" height="25" as="geometry" />
        </mxCell>
        <mxCell id="g1UYE4MBqfW0X2hkzpsW-20" value="&lt;font style=&quot;font-size: 14px;&quot;&gt;Extra Customer Information (birth date)&lt;/font&gt;" style="text;html=1;align=center;verticalAlign=middle;whiteSpace=wrap;rounded=0;fillColor=none;strokeColor=none;" vertex="1" parent="1">
          <mxGeometry x="680" y="120" width="250" height="30" as="geometry" />
        </mxCell>
        <mxCell id="g1UYE4MBqfW0X2hkzpsW-23" value="erp_loc_a101" style="swimlane;fontStyle=0;childLayout=stackLayout;horizontal=1;startSize=30;horizontalStack=0;resizeParent=1;resizeParentMax=0;resizeLast=0;collapsible=1;marginBottom=0;whiteSpace=wrap;html=1;rounded=1;fillColor=#fff2cc;strokeColor=#d6b656;fontSize=18;" vertex="1" parent="1">
          <mxGeometry x="725" y="270" width="160" height="55" as="geometry" />
        </mxCell>
        <mxCell id="g1UYE4MBqfW0X2hkzpsW-24" value="cid" style="text;strokeColor=none;fillColor=none;align=left;verticalAlign=middle;spacingLeft=4;spacingRight=4;overflow=hidden;points=[[0,0.5],[1,0.5]];portConstraint=eastwest;rotatable=0;whiteSpace=wrap;html=1;fontSize=18;" vertex="1" parent="g1UYE4MBqfW0X2hkzpsW-23">
          <mxGeometry y="30" width="160" height="25" as="geometry" />
        </mxCell>
        <mxCell id="g1UYE4MBqfW0X2hkzpsW-25" value="&lt;font style=&quot;font-size: 14px;&quot;&gt;Location of Customers (Country)&lt;/font&gt;" style="text;html=1;align=center;verticalAlign=middle;whiteSpace=wrap;rounded=0;fillColor=none;strokeColor=none;" vertex="1" parent="1">
          <mxGeometry x="700" y="240" width="210" height="30" as="geometry" />
        </mxCell>
        <mxCell id="g1UYE4MBqfW0X2hkzpsW-27" value="erp_px_cat_g1v2" style="swimlane;fontStyle=0;childLayout=stackLayout;horizontal=1;startSize=30;horizontalStack=0;resizeParent=1;resizeParentMax=0;resizeLast=0;collapsible=1;marginBottom=0;whiteSpace=wrap;html=1;rounded=1;fillColor=#fff2cc;strokeColor=#d6b656;fontSize=18;" vertex="1" parent="1">
          <mxGeometry x="715" y="397.5" width="160" height="55" as="geometry" />
        </mxCell>
        <mxCell id="g1UYE4MBqfW0X2hkzpsW-28" value="id" style="text;strokeColor=none;fillColor=none;align=left;verticalAlign=middle;spacingLeft=4;spacingRight=4;overflow=hidden;points=[[0,0.5],[1,0.5]];portConstraint=eastwest;rotatable=0;whiteSpace=wrap;html=1;fontSize=18;" vertex="1" parent="g1UYE4MBqfW0X2hkzpsW-27">
          <mxGeometry y="30" width="160" height="25" as="geometry" />
        </mxCell>
        <mxCell id="g1UYE4MBqfW0X2hkzpsW-29" value="&lt;font style=&quot;font-size: 14px;&quot;&gt;Product Categories&lt;/font&gt;" style="text;html=1;align=center;verticalAlign=middle;whiteSpace=wrap;rounded=0;fillColor=none;strokeColor=none;" vertex="1" parent="1">
          <mxGeometry x="710" y="367.5" width="170" height="30" as="geometry" />
        </mxCell>
        <mxCell id="g1UYE4MBqfW0X2hkzpsW-30" style="edgeStyle=orthogonalEdgeStyle;rounded=0;orthogonalLoop=1;jettySize=auto;html=1;entryX=1;entryY=0.5;entryDx=0;entryDy=0;" edge="1" parent="1" source="g1UYE4MBqfW0X2hkzpsW-28" target="g1UYE4MBqfW0X2hkzpsW-9">
          <mxGeometry relative="1" as="geometry" />
        </mxCell>
        <mxCell id="g1UYE4MBqfW0X2hkzpsW-32" style="edgeStyle=orthogonalEdgeStyle;rounded=0;orthogonalLoop=1;jettySize=auto;html=1;entryX=1;entryY=0.5;entryDx=0;entryDy=0;" edge="1" parent="1" source="g1UYE4MBqfW0X2hkzpsW-19" target="g1UYE4MBqfW0X2hkzpsW-31">
          <mxGeometry relative="1" as="geometry" />
        </mxCell>
        <mxCell id="g1UYE4MBqfW0X2hkzpsW-33" style="edgeStyle=orthogonalEdgeStyle;rounded=0;orthogonalLoop=1;jettySize=auto;html=1;entryX=1;entryY=0.5;entryDx=0;entryDy=0;" edge="1" parent="1" source="g1UYE4MBqfW0X2hkzpsW-24" target="g1UYE4MBqfW0X2hkzpsW-31">
          <mxGeometry relative="1" as="geometry" />
        </mxCell>
        <mxCell id="g1UYE4MBqfW0X2hkzpsW-34" value="" style="rounded=1;whiteSpace=wrap;html=1;arcSize=7;fillColor=none;dashed=1;" vertex="1" parent="1">
          <mxGeometry x="20" y="100" width="500" height="380" as="geometry" />
        </mxCell>
        <mxCell id="g1UYE4MBqfW0X2hkzpsW-35" value="&lt;b&gt;&lt;font style=&quot;font-size: 18px;&quot;&gt;CRM&lt;/font&gt;&lt;/b&gt;" style="rounded=1;whiteSpace=wrap;html=1;fillColor=#dae8fc;strokeColor=#6c8ebf;" vertex="1" parent="1">
          <mxGeometry x="200" y="80" width="120" height="40" as="geometry" />
        </mxCell>
        <mxCell id="g1UYE4MBqfW0X2hkzpsW-36" value="" style="rounded=1;whiteSpace=wrap;html=1;arcSize=7;fillColor=none;dashed=1;strokeColor=#d6b656;" vertex="1" parent="1">
          <mxGeometry x="620" y="100" width="390" height="382.5" as="geometry" />
        </mxCell>
        <mxCell id="g1UYE4MBqfW0X2hkzpsW-37" value="&lt;font style=&quot;font-size: 18px;&quot;&gt;&lt;b&gt;ERP&lt;/b&gt;&lt;/font&gt;" style="rounded=1;whiteSpace=wrap;html=1;fillColor=#fff2cc;strokeColor=#d6b656;" vertex="1" parent="1">
          <mxGeometry x="755" y="80" width="120" height="40" as="geometry" />
        </mxCell>
      </root>
    </mxGraphModel>
  </diagram>
</mxfile>
